<?xml version="1.0" standalone="no"?>
<!DOCTYPE svg PUBLIC "-//W3C//DTD SVG 20010904//EN"
        "http://www.w3.org/TR/2001/REC-SVG-20010904/DTD/svg10.dtd">
<svg version="1.0" xmlns="http://www.w3.org/2000/svg"
     width="700.000000pt" height="700.000000pt" viewBox="0 0 700.000000 700.000000"
     preserveAspectRatio="xMidYMid meet">
    <metadata>
        Created by potrace 1.11, written by Peter Selinger 2001-2013
    </metadata>
    <g transform="translate(0.000000,700.000000) scale(0.100000,-0.100000)"
       fill="#000000" stroke="none">
        <path d="M0 6490 l0 -60 388 0 c443 0 417 11 217 -94 -60 -32 -150 -80 -200
-107 -231 -123 -304 -161 -353 -186 l-52 -26 0 -87 0 -86 463 -1 462 0 5 36
c3 20 4 48 2 62 l-4 25 -384 0 c-317 -1 -381 1 -367 12 10 7 79 45 153 84 74
39 162 85 195 103 33 18 110 58 170 90 155 82 219 116 228 124 7 7 10 66 8
139 l-1 32 -465 0 -465 0 0 -60z"/>
        <path d="M774 5600 c-87 -44 -174 -92 -193 -107 -44 -32 -81 -72 -81 -87 0 -6
-13 12 -29 39 -51 90 -166 130 -285 99 -76 -20 -120 -55 -153 -121 -28 -57
-28 -61 -31 -266 l-4 -207 468 2 468 3 1 45 c1 81 9 78 -201 78 -120 -1 -189
3 -193 10 -10 16 -4 169 9 207 17 52 73 94 233 174 132 66 147 76 148 100 0
14 1 45 2 69 1 23 1 42 0 42 -1 0 -72 -36 -159 -80z m-405 -207 c45 -34 61
-82 64 -199 2 -58 -1 -108 -6 -111 -7 -4 -238 -7 -309 -4 -14 1 -16 15 -16
103 1 135 20 186 83 222 41 22 147 16 184 -11z"/>
        <path d="M4670 5513 c-57 -7 -156 -38 -196 -60 -125 -70 -229 -215 -250 -351
-3 -20 -8 -40 -11 -44 -6 -12 -5 -207 2 -253 27 -172 132 -326 269 -394 174
-86 413 -77 585 21 l44 25 1 76 c1 43 0 77 -1 77 -2 0 -33 -20 -70 -45 -88
-59 -175 -86 -278 -86 -218 -1 -348 111 -390 336 -12 68 -5 221 13 292 34 128
93 201 202 252 49 23 68 26 165 26 131 0 189 -16 286 -81 37 -24 68 -44 70
-44 3 0 3 104 0 146 -1 15 -112 68 -186 90 -54 15 -194 25 -255 17z"/>
        <path d="M1176 5492 c-3 -3 -6 -32 -6 -64 l0 -58 199 0 199 0 0 -477 c0 -263
1 -488 1 -500 1 -22 5 -23 76 -23 l75 0 0 500 0 500 200 0 200 0 0 63 0 64
-469 1 c-258 0 -472 -2 -475 -6z"/>
        <path d="M2269 5452 c-1 -58 -1 -1005 0 -1050 l1 -32 359 1 359 1 4 64 3 64
-287 0 -288 0 0 205 0 206 223 -1 c122 -1 243 -1 268 0 l46 0 -2 63 -1 62
-267 0 -267 0 0 168 0 167 280 0 281 0 -3 63 -3 62 -352 2 -353 1 -1 -46z"/>
        <path d="M3512 5441 c-11 -31 -106 -281 -211 -555 -105 -275 -191 -503 -191
-507 0 -4 34 -6 76 -6 57 2 79 6 85 17 4 8 27 71 51 140 l43 125 255 3 255 2
51 -142 50 -143 78 -2 c68 -1 77 1 73 15 -4 17 -371 985 -405 1069 l-17 42
-86 -1 -86 -2 -21 -55z m208 -366 c16 -44 47 -126 68 -182 38 -100 39 -103 18
-104 -78 -2 -380 1 -384 5 -3 4 85 253 150 421 11 28 23 62 28 77 17 55 23 50
57 -43 19 -52 47 -130 63 -174z"/>
        <path d="M5350 4934 l0 -563 75 0 c64 0 75 2 76 17 0 9 1 130 2 267 l2 250
273 2 c204 1 272 -1 273 -10 1 -7 3 -122 4 -257 1 -135 3 -251 4 -257 1 -9 22
-12 74 -10 l72 2 2 561 2 561 -75 1 c-63 1 -74 -2 -75 -16 -1 -9 -2 -110 -3
-224 0 -113 -4 -210 -8 -214 -8 -8 -525 -12 -538 -4 -5 3 -9 91 -9 195 1 105
0 206 0 226 l-1 37 -75 -1 -75 0 0 -563z"/>
        <path d="M665 4714 c-137 -52 -259 -99 -270 -104 -11 -5 -96 -38 -190 -74 -94
-35 -178 -67 -187 -71 -15 -6 -18 -20 -18 -79 l0 -73 218 -83 c119 -45 255
-97 302 -115 228 -88 406 -155 410 -155 3 0 5 12 4 28 -1 15 -3 45 -3 67 l-1
40 -85 28 c-47 16 -101 35 -119 42 l-34 14 0 210 1 209 118 42 c125 44 121 41
121 105 0 50 -2 65 -9 64 -5 0 -120 -43 -258 -95z m-77 -324 c0 -93 -3 -170
-7 -170 -20 0 -451 164 -444 170 4 3 94 37 198 75 105 38 204 74 220 81 17 7
31 13 32 14 1 0 1 -76 1 -170z"/>
        <path d="M1840 4208 c-293 -32 -505 -216 -581 -503 -27 -105 -34 -317 -13
-430 58 -319 256 -521 559 -571 62 -10 204 -10 270 -1 123 18 334 107 336 142
0 8 1 31 1 50 0 19 -1 61 -1 92 l-1 57 -27 -26 c-72 -66 -199 -131 -280 -144
-21 -3 -41 -8 -45 -11 -18 -10 -198 -2 -250 12 -193 50 -316 191 -354 406 -15
82 -9 318 9 389 53 199 171 323 349 365 88 20 265 14 338 -12 82 -30 150 -66
208 -112 29 -23 52 -38 53 -34 0 5 0 51 0 103 -1 79 -4 97 -18 109 -36 27
-166 81 -241 100 -70 17 -97 20 -212 25 -19 0 -64 -2 -100 -6z"/>
        <path d="M3195 4204 c-98 -15 -151 -33 -236 -84 -73 -43 -170 -141 -213 -213
-27 -48 -72 -157 -80 -199 -3 -13 -10 -48 -16 -78 -12 -61 -16 -240 -6 -310
42 -301 188 -501 426 -584 252 -88 538 -35 704 130 149 148 217 333 217 589 0
257 -71 446 -222 592 -138 133 -351 191 -574 157z m317 -197 c176 -87 268
-275 269 -551 1 -61 -2 -129 -6 -151 -56 -320 -260 -484 -549 -441 -169 25
-322 190 -360 387 -3 19 -8 45 -11 59 -10 43 -6 252 5 310 22 116 58 201 119
278 47 60 94 93 178 127 51 21 72 24 169 22 105 -2 113 -4 186 -40z"/>
        <path d="M4305 3463 c1 -400 3 -731 3 -735 2 -7 570 -2 612 6 14 2 41 7 60 11
273 49 442 186 514 415 66 209 50 508 -38 690 -44 93 -149 195 -246 242 -157
76 -282 95 -651 97 l-256 2 2 -728z m583 552 c299 -43 435 -217 435 -560 0
-263 -79 -423 -250 -505 -94 -45 -184 -61 -368 -64 -88 -1 -170 0 -182 2 l-22
4 -1 563 c0 425 3 564 12 567 19 7 323 1 376 -7z"/>
        <path d="M5850 3456 l0 -733 469 0 c337 0 471 3 473 11 2 6 4 43 3 81 l0 70
-373 3 -372 2 0 265 0 265 348 0 348 0 0 83 -1 82 -345 1 -345 1 -3 217 -2
216 363 0 364 0 -1 83 -1 82 -462 3 -463 2 0 -734z"/>
        <path d="M844 3860 c-18 -5 -19 -16 -19 -237 l0 -233 -60 -1 c-138 -1 -269 1
-273 5 -2 3 -4 102 -4 220 l0 214 -31 4 c-18 1 -42 2 -54 0 l-23 -3 0 -220 0
-219 -32 0 c-65 -1 -203 -2 -224 -1 -20 1 -20 5 -19 219 1 119 0 223 -3 230
-2 7 -23 12 -53 12 l-49 0 0 -295 0 -295 465 0 465 0 1 23 c0 30 1 514 0 552
-1 27 -4 30 -34 30 -19 0 -42 -2 -53 -5z"/>
        <path d="M829 3118 c-1 -7 -2 -110 -3 -228 l-1 -215 -410 0 -410 0 -3 -62 -3
-63 466 0 c436 0 465 1 466 18 0 9 1 140 2 290 l2 272 -52 0 c-35 0 -53 -4
-54 -12z"/>
        <path d="M4543 2131 c-55 -26 -101 -75 -116 -128 -9 -32 -13 -158 -12 -491 l0
-448 26 -49 c18 -35 39 -59 74 -80 46 -29 54 -30 181 -33 l132 -4 -2 -31 -3
-32 -139 -1 c-209 -2 -200 -1 -231 -32 -15 -16 -43 -64 -62 -108 -19 -43 -42
-97 -52 -119 -107 -242 -139 -327 -133 -350 4 -17 21 -33 48 -47 41 -21 42
-21 1076 -21 826 0 1040 2 1060 13 42 21 60 42 60 69 0 32 -165 495 -192 539
-11 18 -29 37 -40 43 -13 7 -92 12 -205 12 l-183 1 0 33 0 33 115 0 c63 0 117
0 120 0 3 0 22 7 43 15 47 20 88 59 114 109 19 37 20 58 20 496 0 430 -1 461
-19 501 -24 54 -80 104 -130 118 -25 7 -290 11 -773 11 -699 0 -737 -1 -777
-19z m1539 -97 c58 -30 58 -33 58 -504 0 -471 -2 -485 -57 -513 -24 -12 -142
-14 -755 -14 -515 0 -733 3 -749 11 -12 6 -31 23 -42 38 -20 27 -21 42 -22
455 0 236 3 441 7 457 9 36 44 74 72 79 11 2 345 4 741 4 603 1 724 -1 747
-13z"/>
        <path d="M1369 2053 c-1 -4 -3 -179 -4 -388 -2 -209 -3 -383 -4 -386 0 -4 -76
-7 -168 -7 -93 0 -178 0 -190 -1 -22 -1 -23 -5 -23 -76 0 -71 1 -75 23 -75 12
-1 99 -1 192 -1 l170 -1 0 -556 0 -557 61 -3 61 -3 2 998 c1 549 2 1012 4
1028 l2 30 -62 3 c-35 2 -64 0 -64 -5z"/>
        <path d="M2457 2024 c-263 -35 -400 -147 -411 -336 -8 -137 36 -250 122 -312
49 -36 168 -80 242 -90 25 -3 56 -8 70 -11 48 -12 276 -6 360 9 269 48 381
161 375 381 -4 177 -102 288 -298 339 -116 30 -318 39 -460 20z m418 -161
c150 -39 215 -102 215 -210 0 -89 -61 -160 -176 -202 -70 -27 -130 -34 -264
-35 -340 -1 -501 89 -477 265 12 89 92 156 220 184 79 18 409 17 482 -2z"/>
        <path d="M519 1888 c-1 -2 -3 -52 -4 -113 -6 -198 -15 -369 -20 -400 -8 -45
-16 -97 -21 -125 -3 -14 -14 -59 -26 -100 -56 -202 -155 -391 -299 -566 l-58
-72 54 -51 55 -52 28 33 c117 135 232 346 317 582 l32 88 23 -73 c28 -88 99
-252 143 -329 45 -80 139 -219 180 -265 l36 -40 25 30 c14 17 35 45 47 62 l21
33 -64 77 c-35 43 -66 80 -69 83 -3 3 -30 40 -59 83 -153 230 -221 509 -221
912 0 72 2 140 5 153 9 43 -2 52 -65 52 -32 0 -59 -1 -60 -2z"/>
        <path d="M1913 1132 c-22 -3 -23 -8 -23 -77 l0 -74 323 0 c177 0 330 0 340 0
15 -1 17 -12 17 -90 0 -62 4 -90 13 -93 10 -4 43 -3 92 1 12 1 15 18 15 91 l0
90 43 1 c23 0 176 0 340 0 l297 1 0 74 0 74 -97 0 c-690 4 -1343 4 -1360 2z"/>
        <path d="M2065 791 c-3 -2 -5 -37 -5 -77 l0 -72 478 -1 c262 0 492 0 510 0
l32 -1 0 -73 0 -72 -507 0 -508 0 0 -230 0 -230 585 0 585 1 1 77 0 77 -528 0
-528 0 0 75 0 75 53 1 c28 0 257 1 507 2 l455 2 3 225 2 226 -255 0 -255 0 0
-38 0 -38 -60 0 -60 0 0 38 0 38 -250 0 c-138 0 -253 -2 -255 -5z"/>
    </g>
</svg>
